<svg width="87" height="85" viewBox="0 0 87 85" fill="none" xmlns="http://www.w3.org/2000/svg">
<g clip-path="url(#clip0_1_47)">
<path fill-rule="evenodd" clip-rule="evenodd" d="M79.3049 0V65H69.0696V80H76.7461V85H20.452C16.7161 85 13.1337 83.4 10.6772 80.6C8.73256 78.35 7.65784 75.45 7.65784 72.5V12.5C7.65784 5.59999 13.3896 0 20.452 0H79.3049ZM63.952 65H21.0149C16.972 65 13.492 67.7 12.8778 71.2C12.8266 71.6 12.7755 72 12.7755 72.35V72.5C12.7755 74.3 13.3896 76 14.6178 77.35C16.0508 79.05 18.2002 80 20.452 80H63.952V75H18.5072V70H63.952V65ZM61.3932 40H25.5696V45H61.3931V40H61.3932ZM63.952 15H23.0108V35H63.952V15ZM28.1284 30H58.8343V20H28.1284V30Z" fill="#0070F0"/>
</g>
<defs>
<clipPath id="clip0_1_47">
<rect width="87" height="85" fill="white"/>
</clipPath>
</defs>
</svg>
