<svg width="111" height="111" viewBox="0 0 111 111" fill="none" xmlns="http://www.w3.org/2000/svg">
<path d="M74 37H37C35.7734 37 34.597 36.5127 33.7296 35.6454C32.8623 34.778 32.375 33.6016 32.375 32.375V18.5C32.375 16.0467 33.3496 13.694 35.0843 11.9593C36.819 10.2246 39.1717 9.25 41.625 9.25H69.375C71.8282 9.25 74.181 10.2246 75.9157 11.9593C77.6504 13.694 78.625 16.0467 78.625 18.5V32.375C78.625 33.6016 78.1377 34.778 77.2704 35.6454C76.403 36.5127 75.2266 37 74 37ZM41.625 27.75H69.375V18.5H41.625V27.75Z" fill="#19CBA0"/>
<path d="M92.5 27.75H18.5C13.3914 27.75 9.25 31.8914 9.25 37V92.5C9.25 97.6086 13.3914 101.75 18.5 101.75H92.5C97.6086 101.75 101.75 97.6086 101.75 92.5V37C101.75 31.8914 97.6086 27.75 92.5 27.75Z" fill="#0070F0"/>
<path d="M69.375 64.75C68.1484 64.75 66.972 64.2627 66.1046 63.3954C65.2373 62.528 64.75 61.3516 64.75 60.125V55.5H32.375C31.1484 55.5 29.972 55.0127 29.1046 54.1454C28.2373 53.278 27.75 52.1016 27.75 50.875C27.75 49.6484 28.2373 48.472 29.1046 47.6046C29.972 46.7373 31.1484 46.25 32.375 46.25H78.625C79.8516 46.25 81.028 46.7373 81.8954 47.6046C82.7627 48.472 83.25 49.6484 83.25 50.875C83.25 52.1016 82.7627 53.278 81.8954 54.1454C81.028 55.0127 79.8516 55.5 78.625 55.5H74V60.125C74 61.3516 73.5127 62.528 72.6454 63.3954C71.778 64.2627 70.6016 64.75 69.375 64.75Z" fill="#19CBA0"/>
</svg>
