<svg width="102" height="102" viewBox="0 0 102 102" fill="none" xmlns="http://www.w3.org/2000/svg">
<g clip-path="url(#clip0_1_31)">
<path d="M100.772 35.9427L55.6348 15.1653C54.1708 14.491 52.6113 14.1507 51 14.1507C49.3887 14.1507 47.8296 14.491 46.3652 15.1653L1.22779 35.9427C0.481711 36.2875 0 37.0392 0 37.8605C0 38.6819 0.481711 39.4336 1.22779 39.7784L46.3652 60.5557C47.8292 61.2301 49.3887 61.5719 51 61.5719C52.6113 61.5719 54.1708 61.2301 55.6352 60.5557L91.2579 44.1588V60.6703C89.8443 60.8296 88.7418 62.0329 88.7418 63.4868C88.7418 64.7537 89.5801 65.8504 90.775 66.1998L88.3661 82.0957H99.4578L97.0492 66.1998C98.2437 65.8504 99.082 64.7537 99.082 63.4868C99.082 62.0329 97.9796 60.8296 96.5659 60.6703V41.715L100.773 39.7784C101.518 39.4336 102 38.6819 102 37.8605C102 37.0392 101.518 36.2875 100.772 35.9427Z" fill="#0070F0"/>
<path d="M51 69.0952C48.7596 69.0952 46.5887 68.6189 44.5481 67.68L22.4705 57.5164V77.7646C22.4705 82.21 35.903 87.8493 51 87.8493C66.0972 87.8493 79.5299 82.2098 79.5299 77.7646V57.5164L57.4511 67.68C55.4117 68.6189 53.2412 69.0952 51 69.0952Z" fill="#0070F0"/>
</g>
<defs>
<clipPath id="clip0_1_31">
<rect width="102" height="102" fill="white"/>
</clipPath>
</defs>
</svg>
