<svg width="78" height="78" viewBox="0 0 78 78" fill="none" xmlns="http://www.w3.org/2000/svg">
<path d="M10.2 0.399994H67.8C70.44 0.399994 72.696 1.35999 74.568 3.23199C76.44 5.10399 77.4 7.35999 77.4 9.99999V43.6C77.4 46.24 76.44 48.496 74.568 50.368C72.696 52.24 70.44 53.2 67.8 53.2H63L39 77.2V53.2H10.2C7.55998 53.2 5.30398 52.24 3.43198 50.368C1.55998 48.496 0.599976 46.24 0.599976 43.6V9.99999C0.599976 7.35999 1.55998 5.10399 3.43198 3.23199C5.30398 1.35999 7.55998 0.399994 10.2 0.399994ZM63 9.99999H10.2V14.8H63V9.99999ZM67.8 24.4H10.2V29.2H67.8V24.4ZM53.4 38.8H10.2V43.6H53.4V38.8Z" fill="#0070F0"/>
</svg>
