<svg width="206" height="206" viewBox="0 0 206 206" fill="none" xmlns="http://www.w3.org/2000/svg">
<path d="M103 205.5C88.8208 205.5 75.4958 202.809 63.025 197.428C50.5542 192.047 39.7062 184.744 30.4812 175.519C21.2562 166.294 13.9531 155.446 8.57187 142.975C3.19062 130.504 0.5 117.179 0.5 103C0.5 88.8208 3.19062 75.4958 8.57187 63.025C13.9531 50.5542 21.2562 39.7062 30.4812 30.4812C39.7062 21.2562 50.5542 13.9531 63.025 8.57187C75.4958 3.19062 88.8208 0.5 103 0.5C114.104 0.5 124.61 2.12292 134.519 5.36875C144.427 8.61458 153.567 13.1417 161.938 18.95L147.075 34.0687C140.583 29.9687 133.665 26.7656 126.319 24.4594C118.973 22.1531 111.2 21 103 21C80.2792 21 60.9323 28.9865 44.9594 44.9594C28.9865 60.9323 21 80.2792 21 103C21 125.721 28.9865 145.068 44.9594 161.041C60.9323 177.014 80.2792 185 103 185C125.721 185 145.068 177.014 161.041 161.041C177.014 145.068 185 125.721 185 103C185 99.925 184.829 96.85 184.488 93.775C184.146 90.7 183.633 87.7104 182.95 84.8063L199.606 68.15C201.485 73.6167 202.937 79.2542 203.962 85.0625C204.987 90.8708 205.5 96.85 205.5 103C205.5 117.179 202.809 130.504 197.428 142.975C192.047 155.446 184.744 166.294 175.519 175.519C166.294 184.744 155.446 192.047 142.975 197.428C130.504 202.809 117.179 205.5 103 205.5ZM88.65 150.15L45.0875 106.587L59.4375 92.2375L88.65 121.45L191.15 18.6938L205.5 33.0438L88.65 150.15Z" fill="#E3E3E3"/>
</svg>
