<svg width="43" height="38" viewBox="0 0 43 38" fill="none" xmlns="http://www.w3.org/2000/svg">
<path d="M0.731445 23.7347V19.0583H17.0988V23.7347H0.731445ZM0.731445 14.3819V9.70554H26.4515V14.3819H0.731445ZM0.731445 5.02916V0.352783H26.4515V5.02916H0.731445ZM21.7751 37.7638V30.5739L34.6936 17.7138C35.0444 17.3631 35.4341 17.1098 35.8627 16.9539C36.2914 16.798 36.7201 16.7201 37.1487 16.7201C37.6164 16.7201 38.0645 16.8078 38.4932 16.9832C38.9219 17.1585 39.3116 17.4216 39.6623 17.7723L41.8251 19.9351C42.1369 20.2858 42.3804 20.6755 42.5558 21.1042C42.7312 21.5329 42.8188 21.9615 42.8188 22.3902C42.8188 22.8189 42.7409 23.2573 42.585 23.7054C42.4291 24.1536 42.1758 24.553 41.8251 24.9038L28.9651 37.7638H21.7751ZM25.2824 34.2565H27.5037L34.5767 27.125L33.5245 26.0144L32.4139 24.9622L25.2824 32.0352V34.2565ZM33.5245 26.0144L32.4139 24.9622L34.5767 27.125L33.5245 26.0144Z" fill="white"/>
</svg>
