<svg width="59" height="59" viewBox="0 0 59 59" fill="none" xmlns="http://www.w3.org/2000/svg">
<path d="M29.5 6.14583C31.5364 6.14583 33.1875 7.79678 33.1875 9.83333C33.1875 11.8699 31.5364 13.5208 29.5 13.5208H17.2083C16.5294 13.5208 15.9791 14.0712 15.9791 14.75V44.25C15.9791 44.9287 16.5294 45.4792 17.2083 45.4792H28.2708C30.3073 45.4792 31.9583 47.1302 31.9583 49.1667C31.9583 51.2031 30.3073 52.8542 28.2708 52.8542H17.2083C12.4563 52.8542 8.60413 49.002 8.60413 44.25V14.75C8.60413 9.99804 12.4563 6.14583 17.2083 6.14583H29.5ZM44.3989 19.9393L51.3521 26.8924C52.7922 28.3325 52.7922 30.6675 51.3521 32.1076L44.3989 39.0607C42.9588 40.5008 40.6242 40.5008 39.1841 39.0607C37.744 37.6206 37.744 35.2859 39.1841 33.8458L39.8422 33.1875H29.5C27.4635 33.1875 25.8125 31.5365 25.8125 29.5C25.8125 27.4635 27.4635 25.8125 29.5 25.8125H39.8422L39.1841 25.1542C37.744 23.7142 37.744 21.3794 39.1841 19.9393C40.6242 18.4993 42.9588 18.4993 44.3989 19.9393Z" fill="#0070F0"/>
</svg>
