<svg width="60" height="49" viewBox="0 0 60 49" fill="none" xmlns="http://www.w3.org/2000/svg">
<path d="M20.0642 46.6103C20.0642 47.9192 21.085 48.9803 22.3442 48.9803C23.6034 48.9803 24.6242 47.9192 24.6242 46.6103H20.0642ZM22.3442 39.5603L20.0659 39.4697C20.0648 39.5 20.0642 39.53 20.0642 39.5603H22.3442ZM29.6402 32.5135L29.56 34.882C29.6135 34.8839 29.667 34.8839 29.7205 34.882L29.6402 32.5135ZM36.9362 39.5603H39.2162C39.2162 39.53 39.2156 39.5 39.2147 39.4697L36.9362 39.5603ZM34.6562 46.6103C34.6562 47.9192 35.6771 48.9803 36.9362 48.9803C38.1954 48.9803 39.2162 47.9192 39.2162 46.6103H34.6562ZM22.3442 44.2403C21.085 44.2403 20.0642 45.3014 20.0642 46.6103C20.0642 47.9192 21.085 48.9803 22.3442 48.9803V44.2403ZM36.9362 48.9803C38.1954 48.9803 39.2162 47.9192 39.2162 46.6103C39.2162 45.3014 38.1954 44.2403 36.9362 44.2403V48.9803ZM22.3442 48.9803C23.6034 48.9803 24.6242 47.9192 24.6242 46.6103C24.6242 45.3014 23.6034 44.2403 22.3442 44.2403V48.9803ZM20.5202 46.6103V44.2403C20.4935 44.2403 20.4667 44.2406 20.44 44.2416L20.5202 46.6103ZM9.57623 36.0369H7.29623C7.29623 36.0667 7.29678 36.0967 7.29787 36.1267L9.57623 36.0369ZM11.8562 14.8459C11.8562 13.537 10.8354 12.4759 9.57623 12.4759C8.31704 12.4759 7.29623 13.537 7.29623 14.8459H11.8562ZM0.999786 18.0326C-0.0421137 18.7675 -0.313433 20.2414 0.393731 21.3246C1.10093 22.4076 2.51881 22.6894 3.56068 21.9544L0.999786 18.0326ZM10.8567 16.8069C11.8986 16.0718 12.1699 14.5979 11.4627 13.5149C10.7555 12.4319 9.33765 12.1498 8.29578 12.885L10.8567 16.8069ZM8.29578 12.885C7.25386 13.62 6.98257 15.0938 7.68967 16.1768C8.3968 17.2598 9.81478 17.5419 10.8567 16.8069L8.29578 12.885ZM25.4329 3.65949L24.1959 1.6686C24.1813 1.67839 24.1667 1.68835 24.1524 1.69849L25.4329 3.65949ZM33.8476 3.65949L35.128 1.69849C35.1138 1.68835 35.0992 1.67839 35.0846 1.6686L33.8476 3.65949ZM48.4238 16.8069C49.4659 17.5419 50.8838 17.2598 51.5909 16.1768C52.298 15.0938 52.0265 13.6199 50.9847 12.8849L48.4238 16.8069ZM36.9362 44.2403C35.6771 44.2403 34.6562 45.3014 34.6562 46.6103C34.6562 47.9192 35.6771 48.9803 36.9362 48.9803V44.2403ZM38.7602 46.6103L38.8405 44.2416C38.8137 44.2406 38.787 44.2403 38.7602 44.2403V46.6103ZM49.7042 36.0369L51.9827 36.1267C51.9836 36.0967 51.9842 36.0667 51.9842 36.0369H49.7042ZM51.9842 14.8459C51.9842 13.537 50.9634 12.4759 49.7042 12.4759C48.4451 12.4759 47.4242 13.537 47.4242 14.8459H51.9842ZM55.7204 21.9516C56.7625 22.6866 58.1804 22.4041 58.8872 21.3208C59.594 20.2376 59.3222 18.7638 58.2801 18.0291L55.7204 21.9516ZM50.9847 12.8849C49.9426 12.1501 48.5244 12.4323 47.8173 13.5155C47.1105 14.5987 47.3817 16.0721 48.4238 16.8069L50.9847 12.8849ZM24.6242 46.6103V39.5603H20.0642V46.6103H24.6242ZM24.6227 39.6507C24.723 36.9186 26.9313 34.7856 29.56 34.882L29.7205 30.1448C24.5802 29.9568 20.2622 34.127 20.0659 39.4697L24.6227 39.6507ZM29.7205 34.882C32.3492 34.7856 34.5574 36.9186 34.6578 39.6507L39.2147 39.4697C39.0183 34.127 34.7003 29.9568 29.56 30.1448L29.7205 34.882ZM34.6562 39.5603V46.6103H39.2162V39.5603H34.6562ZM22.3442 48.9803H36.9362V44.2403H22.3442V48.9803ZM22.3442 44.2403H20.5202V48.9803H22.3442V44.2403ZM20.44 44.2416C15.868 44.409 12.0279 40.6989 11.8546 35.9472L7.29787 36.1267C7.56643 43.4895 13.5164 49.2382 20.6005 48.9787L20.44 44.2416ZM11.8562 36.0369V14.8459H7.29623V36.0369H11.8562ZM3.56068 21.9544L10.8567 16.8069L8.29578 12.885L0.999786 18.0326L3.56068 21.9544ZM10.8567 16.8069L26.7133 5.62053L24.1524 1.69849L8.29578 12.885L10.8567 16.8069ZM26.6699 5.65039C28.478 4.43654 30.8024 4.43654 32.6106 5.65039L35.0846 1.6686C31.7707 -0.5562 27.5098 -0.5562 24.1959 1.6686L26.6699 5.65039ZM32.5672 5.62053L48.4238 16.8069L50.9847 12.8849L35.128 1.69849L32.5672 5.62053ZM36.9362 48.9803H38.7602V44.2403H36.9362V48.9803ZM38.68 48.9787C45.7641 49.2382 51.714 43.4895 51.9827 36.1267L47.4258 35.9472C47.2525 40.6989 43.4123 44.409 38.8405 44.2416L38.68 48.9787ZM51.9842 36.0369V14.8459H47.4242V36.0369H51.9842ZM58.2801 18.0291L50.9847 12.8849L48.4238 16.8069L55.7204 21.9516L58.2801 18.0291Z" fill="#0070F0"/>
</svg>
