<svg width="42" height="42" viewBox="0 0 42 42" fill="none" xmlns="http://www.w3.org/2000/svg">
<path d="M18.75 32.25H23.25V23.25H32.25V18.75H23.25V9.75H18.75V18.75H9.75V23.25H18.75V32.25ZM5.25 41.25C4.0125 41.25 2.95312 40.8094 2.07187 39.9281C1.19062 39.0469 0.75 37.9875 0.75 36.75V5.25C0.75 4.0125 1.19062 2.95312 2.07187 2.07187C2.95312 1.19062 4.0125 0.75 5.25 0.75H36.75C37.9875 0.75 39.0469 1.19062 39.9281 2.07187C40.8094 2.95312 41.25 4.0125 41.25 5.25V36.75C41.25 37.9875 40.8094 39.0469 39.9281 39.9281C39.0469 40.8094 37.9875 41.25 36.75 41.25H5.25ZM5.25 36.75H36.75V5.25H5.25V36.75Z" fill="#19CBA0"/>
</svg>
