<svg width="205" height="205" viewBox="0 0 205 205" fill="none" xmlns="http://www.w3.org/2000/svg">
<path d="M61.55 159.375L102.5 118.425L143.45 159.375L159.375 143.45L118.425 102.5L159.375 61.55L143.45 45.625L102.5 86.575L61.55 45.625L45.625 61.55L86.575 102.5L45.625 143.45L61.55 159.375ZM22.875 204.875C16.6187 204.875 11.263 202.647 6.80781 198.192C2.3526 193.737 0.125 188.381 0.125 182.125V22.875C0.125 16.6187 2.3526 11.263 6.80781 6.80781C11.263 2.3526 16.6187 0.125 22.875 0.125H182.125C188.381 0.125 193.737 2.3526 198.192 6.80781C202.647 11.263 204.875 16.6187 204.875 22.875V182.125C204.875 188.381 202.647 193.737 198.192 198.192C193.737 202.647 188.381 204.875 182.125 204.875H22.875ZM22.875 182.125H182.125V22.875H22.875V182.125Z" fill="#E3E3E3"/>
</svg>
