<svg width="37" height="37" viewBox="0 0 37 37" fill="none" xmlns="http://www.w3.org/2000/svg">
<path d="M33.3833 36.125L21.0458 23.7875C20.0667 24.5708 18.9406 25.191 17.6677 25.6479C16.3948 26.1049 15.0403 26.3333 13.6042 26.3333C10.0465 26.3333 7.03559 25.1012 4.57135 22.637C2.10712 20.1727 0.875 17.1618 0.875 13.6042C0.875 10.0465 2.10712 7.03559 4.57135 4.57135C7.03559 2.10712 10.0465 0.875 13.6042 0.875C17.1618 0.875 20.1727 2.10712 22.637 4.57135C25.1012 7.03559 26.3333 10.0465 26.3333 13.6042C26.3333 15.0403 26.1049 16.3948 25.6479 17.6677C25.191 18.9406 24.5708 20.0667 23.7875 21.0458L36.125 33.3833L33.3833 36.125ZM13.6042 22.4167C16.0521 22.4167 18.1328 21.5599 19.8464 19.8464C21.5599 18.1328 22.4167 16.0521 22.4167 13.6042C22.4167 11.1563 21.5599 9.07552 19.8464 7.36198C18.1328 5.64844 16.0521 4.79167 13.6042 4.79167C11.1563 4.79167 9.07552 5.64844 7.36198 7.36198C5.64844 9.07552 4.79167 11.1563 4.79167 13.6042C4.79167 16.0521 5.64844 18.1328 7.36198 19.8464C9.07552 21.5599 11.1563 22.4167 13.6042 22.4167Z" fill="#0070F0"/>
</svg>
 