<svg width="111" height="115" viewBox="0 0 111 115" fill="none" xmlns="http://www.w3.org/2000/svg">
<path d="M55.4947 57.4118C63.7382 57.4118 70.4208 50.4678 70.4208 41.902C70.4208 33.3361 63.7382 26.3922 55.4947 26.3922C47.2512 26.3922 40.5686 33.3361 40.5686 41.902C40.5686 50.4678 47.2512 57.4118 55.4947 57.4118Z" stroke="#0070F0" stroke-width="10"/>
<path d="M85.0292 98.7712C84.2336 84.0217 79.8061 73.2662 55.1769 73.2662C30.5482 73.2662 26.1207 84.0217 25.3248 98.7712" stroke="#0070F0" stroke-width="10" stroke-linecap="round"/>
<path d="M30.0886 12.6288C37.469 8.23001 46.0378 5.7124 55.1771 5.7124C82.8889 5.7124 105.354 28.859 105.354 57.4117C105.354 85.9643 82.8889 109.111 55.1771 109.111C27.465 109.111 5 85.9643 5 57.4117C5 47.9952 7.44347 39.1664 11.7128 31.5621" stroke="#0070F0" stroke-width="10" stroke-linecap="round"/>
</svg>
