<svg width="154" height="105" viewBox="0 0 154 105" fill="none" xmlns="http://www.w3.org/2000/svg">
<path d="M77 84C85.75 84 93.1875 80.9375 99.3125 74.8125C105.438 68.6875 108.5 61.25 108.5 52.5C108.5 43.75 105.438 36.3125 99.3125 30.1875C93.1875 24.0625 85.75 21 77 21C68.25 21 60.8125 24.0625 54.6875 30.1875C48.5625 36.3125 45.5 43.75 45.5 52.5C45.5 61.25 48.5625 68.6875 54.6875 74.8125C60.8125 80.9375 68.25 84 77 84ZM77 71.4C71.75 71.4 67.2875 69.5625 63.6125 65.8875C59.9375 62.2125 58.1 57.75 58.1 52.5C58.1 47.25 59.9375 42.7875 63.6125 39.1125C67.2875 35.4375 71.75 33.6 77 33.6C82.25 33.6 86.7125 35.4375 90.3875 39.1125C94.0625 42.7875 95.9 47.25 95.9 52.5C95.9 57.75 94.0625 62.2125 90.3875 65.8875C86.7125 69.5625 82.25 71.4 77 71.4ZM77 105C59.9667 105 44.45 100.246 30.45 90.7375C16.45 81.2292 6.3 68.4833 0 52.5C6.3 36.5167 16.45 23.7708 30.45 14.2625C44.45 4.75417 59.9667 0 77 0C94.0333 0 109.55 4.75417 123.55 14.2625C137.55 23.7708 147.7 36.5167 154 52.5C147.7 68.4833 137.55 81.2292 123.55 90.7375C109.55 100.246 94.0333 105 77 105ZM77 91C90.1833 91 102.288 87.5292 113.312 80.5875C124.337 73.6458 132.767 64.2833 138.6 52.5C132.767 40.7167 124.337 31.3542 113.312 24.4125C102.288 17.4708 90.1833 14 77 14C63.8167 14 51.7125 17.4708 40.6875 24.4125C29.6625 31.3542 21.2333 40.7167 15.4 52.5C21.2333 64.2833 29.6625 73.6458 40.6875 80.5875C51.7125 87.5292 63.8167 91 77 91Z" fill="#E3E3E3"/>
</svg>
